<svg xmlns="http://www.w3.org/2000/svg" xmlns:xlink="http://www.w3.org/1999/xlink" width="1024" height="1024" viewBox="0 0 441 167" version="1.1" class="injected-svg" data-src="https://firebasestorage.googleapis.com/v0/b/brandkitpro.appspot.com/o/repositories%2Fflatlist%2Flogos%2Flogo-colored.svg?alt=media&amp;token=5346f086-031f-483d-9457-5fc838f1c020" style="height: 200px; width: 100%" id="svg-09da53">
    <!-- Generator: Sketch 54.1 (76490) - https://sketchapp.com -->
    <title>FlatList Logo</title>
    <desc>Created with Sketch.</desc>
    <g id="FlatList-Logo" stroke="none" stroke-width="1" fill="none" fill-rule="evenodd">
        <text id="FlatList" font-family="Poppins-Medium, Poppins" font-size="81" font-weight="400" letter-spacing="0.952941239" fill="#424242">
            <tspan x="158" y="112">FlatList</tspan>
        </text>
        <g id="Group" transform="translate(2.000000, 2.000000)" stroke="#424242">
            <path d="M8.52651283e-14,-2.84217094e-14 C1.59598416e-13,91.7049566 1.78051778e-13,140.732479 1.40625213e-13,147.082568 C8.52651283e-14,156.6077 8.38157987,162.113093 19.4773599,162.113093 C30.5731399,162.113093 104.296109,163.787516 114.472631,162.113093 C124.649154,160.43867 130.429768,154.594058 130.429768,143.907527 C126.779857,143.907527 121.460812,143.907527 114.472631,143.907527 L114.472631,-2.84217094e-14 L8.52651283e-14,-2.84217094e-14 Z" id="Path-3-19" stroke-width="4" stroke-linejoin="round"/>
            <path d="M16.8122498,16.1926097 C16.5361075,16.1926097 16.3122498,16.4164673 16.3122498,16.6926097 L16.3122498,31.6926097 C16.3122498,31.968752 16.5361075,32.1926097 16.8122498,32.1926097 L32.8122498,32.1926097 C33.0883922,32.1926097 33.3122498,31.968752 33.3122498,31.6926097 L33.3122498,16.6926097 C33.3122498,16.4164673 33.0883922,16.1926097 32.8122498,16.1926097 L16.8122498,16.1926097 Z M16.8122498,48.1926097 C16.5361075,48.1926097 16.3122498,48.4164673 16.3122498,48.6926097 L16.3122498,63.6926097 C16.3122498,63.968752 16.5361075,64.1926097 16.8122498,64.1926097 L32.8122498,64.1926097 C33.0883922,64.1926097 33.3122498,63.968752 33.3122498,63.6926097 L33.3122498,48.6926097 C33.3122498,48.4164673 33.0883922,48.1926097 32.8122498,48.1926097 L16.8122498,48.1926097 Z M16.8122498,81.1926097 C16.5361075,81.1926097 16.3122498,81.4164673 16.3122498,81.6926097 L16.3122498,96.6926097 C16.3122498,96.968752 16.5361075,97.1926097 16.8122498,97.1926097 L32.8122498,97.1926097 C33.0883922,97.1926097 33.3122498,96.968752 33.3122498,96.6926097 L33.3122498,81.6926097 C33.3122498,81.4164673 33.0883922,81.1926097 32.8122498,81.1926097 L16.8122498,81.1926097 Z M16.8122498,112.19261 C16.5361075,112.19261 16.3122498,112.416467 16.3122498,112.69261 L16.3122498,127.69261 C16.3122498,127.968752 16.5361075,128.19261 16.8122498,128.19261 L32.8122498,128.19261 C33.0883922,128.19261 33.3122498,127.968752 33.3122498,127.69261 L33.3122498,112.69261 C33.3122498,112.416467 33.0883922,112.19261 32.8122498,112.19261 L16.8122498,112.19261 Z M49.8122498,16.1926097 C49.5361075,16.1926097 49.3122498,16.4164673 49.3122498,16.6926097 C49.3122498,16.968752 49.5361075,17.1926097 49.8122498,17.1926097 L78.8122498,17.1926097 C79.0883922,17.1926097 79.3122498,16.968752 79.3122498,16.6926097 C79.3122498,16.4164673 79.0883922,16.1926097 78.8122498,16.1926097 L49.8122498,16.1926097 Z M48.8122498,24.1926097 C48.5361075,24.1926097 48.3122498,24.4164673 48.3122498,24.6926097 C48.3122498,24.968752 48.5361075,25.1926097 48.8122498,25.1926097 L96.8122498,25.1926097 C97.0883922,25.1926097 97.3122498,24.968752 97.3122498,24.6926097 C97.3122498,24.4164673 97.0883922,24.1926097 96.8122498,24.1926097 L48.8122498,24.1926097 Z M49.8122498,48.1926097 C49.5361075,48.1926097 49.3122498,48.4164673 49.3122498,48.6926097 C49.3122498,48.968752 49.5361075,49.1926097 49.8122498,49.1926097 L78.8122498,49.1926097 C79.0883922,49.1926097 79.3122498,48.968752 79.3122498,48.6926097 C79.3122498,48.4164673 79.0883922,48.1926097 78.8122498,48.1926097 L49.8122498,48.1926097 Z M48.8122498,56.1926097 C48.5361075,56.1926097 48.3122498,56.4164673 48.3122498,56.6926097 C48.3122498,56.968752 48.5361075,57.1926097 48.8122498,57.1926097 L96.8122498,57.1926097 C97.0883922,57.1926097 97.3122498,56.968752 97.3122498,56.6926097 C97.3122498,56.4164673 97.0883922,56.1926097 96.8122498,56.1926097 L48.8122498,56.1926097 Z M49.8122498,81.1926097 C49.5361075,81.1926097 49.3122498,81.4164673 49.3122498,81.6926097 C49.3122498,81.968752 49.5361075,82.1926097 49.8122498,82.1926097 L78.8122498,82.1926097 C79.0883922,82.1926097 79.3122498,81.968752 79.3122498,81.6926097 C79.3122498,81.4164673 79.0883922,81.1926097 78.8122498,81.1926097 L49.8122498,81.1926097 Z M48.8122498,89.1926097 C48.5361075,89.1926097 48.3122498,89.4164673 48.3122498,89.6926097 C48.3122498,89.968752 48.5361075,90.1926097 48.8122498,90.1926097 L96.8122498,90.1926097 C97.0883922,90.1926097 97.3122498,89.968752 97.3122498,89.6926097 C97.3122498,89.4164673 97.0883922,89.1926097 96.8122498,89.1926097 L48.8122498,89.1926097 Z M49.8122498,112.19261 C49.5361075,112.19261 49.3122498,112.416467 49.3122498,112.69261 C49.3122498,112.968752 49.5361075,113.19261 49.8122498,113.19261 L78.8122498,113.19261 C79.0883922,113.19261 79.3122498,112.968752 79.3122498,112.69261 C79.3122498,112.416467 79.0883922,112.19261 78.8122498,112.19261 L49.8122498,112.19261 Z M48.8122498,120.19261 C48.5361075,120.19261 48.3122498,120.416467 48.3122498,120.69261 C48.3122498,120.968752 48.5361075,121.19261 48.8122498,121.19261 L96.8122498,121.19261 C97.0883922,121.19261 97.3122498,120.968752 97.3122498,120.69261 C97.3122498,120.416467 97.0883922,120.19261 96.8122498,120.19261 L48.8122498,120.19261 Z" id="Combined-Shape-20" stroke-width="3"/>
            <path d="M114.472631,143.907495 L33.9195326,143.907495 C33.3869094,143.907495 32.9477501,144.324955 32.9207837,144.856895 C32.7504519,148.216867 31.166223,151.789608 28.168097,155.575116 C24.8858904,159.719311 19.9710594,161.694578 13.4236041,161.500915" id="Path-4-21" stroke-width="4" stroke-linecap="round" stroke-linejoin="round"/>
        </g>
    </g>
</svg>